# xmcd CD database file
#
# Track frame offsets:
#	150
#	28945
#	52303
#	71110
#	87488
#
# Disc length: 1372 seconds
#
# Revision: 0
# Processed by: cddbd v1.5.2PL0 Copyright (c) Steve Scherf et al.
# Submitted via: CDex 1.70
#
DISCID=4b055a05
DTITLE=Sarah Tobias - Third Eye
DYEAR=2012
DGENRE=Jazz
TTITLE0=Now and Forever (Instrumental)
TTITLE1=Cloud
TTITLE2=Third Eye
TTITLE3=Peace of Mond (Dub Mix)
TTITLE4=Tantrics
EXTD=YEAR: 2012
EXTT0=
EXTT1=
EXTT2=
EXTT3=
EXTT4=
PLAYORDER=
